<mxfile host="app.diagrams.net" modified="2024-07-05T16:09:53.816Z" agent="Mozilla/5.0 (Windows NT 10.0; Win64; x64) AppleWebKit/537.36 (KHTML, like Gecko) Chrome/126.0.0.0 Safari/537.36 Edg/126.0.0.0" etag="yq2x1QX2y5WF3Tyt_lve" version="24.6.4">
  <diagram name="Page-1" id="DZVCTHQu2n3p9sboyNOl">
    <mxGraphModel dx="3486" dy="2109" grid="1" gridSize="10" guides="1" tooltips="1" connect="1" arrows="1" fold="1" page="1" pageScale="1" pageWidth="850" pageHeight="1100" math="0" shadow="0">
      <root>
        <mxCell id="0" />
        <mxCell id="1" parent="0" />
        <mxCell id="jgYk3zZ4BMT8bTG-VnUE-66" value="A&lt;br&gt;P&lt;br&gt;I&lt;br&gt;&lt;br&gt;G&lt;br&gt;A&lt;br&gt;T&lt;br&gt;E&lt;br&gt;W&lt;br&gt;A&lt;br&gt;Y" style="rounded=0;whiteSpace=wrap;html=1;" vertex="1" parent="1">
          <mxGeometry x="-984.5" y="-250" width="30" height="760" as="geometry" />
        </mxCell>
        <mxCell id="jgYk3zZ4BMT8bTG-VnUE-67" value="Front End Server" style="image;points=[];aspect=fixed;html=1;align=center;shadow=0;dashed=0;image=img/lib/allied_telesis/computer_and_terminals/Personal_Computer_with_Server.svg;" vertex="1" parent="1">
          <mxGeometry x="-1290" y="50" width="62.400000000000006" height="62.400000000000006" as="geometry" />
        </mxCell>
        <mxCell id="jgYk3zZ4BMT8bTG-VnUE-68" value="Identity Server" style="image;aspect=fixed;perimeter=ellipsePerimeter;html=1;align=center;shadow=0;dashed=0;spacingTop=3;image=img/lib/active_directory/database_server.svg;" vertex="1" parent="1">
          <mxGeometry x="-990" y="-450" width="41" height="50" as="geometry" />
        </mxCell>
        <mxCell id="jgYk3zZ4BMT8bTG-VnUE-78" style="edgeStyle=orthogonalEdgeStyle;rounded=0;orthogonalLoop=1;jettySize=auto;html=1;entryX=0;entryY=0.5;entryDx=0;entryDy=0;" edge="1" parent="1" source="jgYk3zZ4BMT8bTG-VnUE-69" target="jgYk3zZ4BMT8bTG-VnUE-68">
          <mxGeometry relative="1" as="geometry" />
        </mxCell>
        <mxCell id="jgYk3zZ4BMT8bTG-VnUE-81" value="Returns JWT&lt;br&gt;access Token" style="edgeLabel;html=1;align=center;verticalAlign=middle;resizable=0;points=[];" vertex="1" connectable="0" parent="jgYk3zZ4BMT8bTG-VnUE-78">
          <mxGeometry x="-0.2628" y="4" relative="1" as="geometry">
            <mxPoint x="-1" as="offset" />
          </mxGeometry>
        </mxCell>
        <mxCell id="jgYk3zZ4BMT8bTG-VnUE-69" value="Identity&lt;br&gt;Database" style="shape=cylinder3;whiteSpace=wrap;html=1;boundedLbl=1;backgroundOutline=1;size=15;" vertex="1" parent="1">
          <mxGeometry x="-1208" y="-465" width="60" height="80" as="geometry" />
        </mxCell>
        <mxCell id="jgYk3zZ4BMT8bTG-VnUE-70" style="edgeStyle=orthogonalEdgeStyle;rounded=0;orthogonalLoop=1;jettySize=auto;html=1;entryX=0;entryY=0.435;entryDx=0;entryDy=0;entryPerimeter=0;" edge="1" parent="1" source="jgYk3zZ4BMT8bTG-VnUE-67" target="jgYk3zZ4BMT8bTG-VnUE-66">
          <mxGeometry relative="1" as="geometry" />
        </mxCell>
        <mxCell id="jgYk3zZ4BMT8bTG-VnUE-71" value="Http Call" style="text;html=1;align=center;verticalAlign=middle;resizable=0;points=[];autosize=1;strokeColor=none;fillColor=none;" vertex="1" parent="1">
          <mxGeometry x="-1165" y="38" width="70" height="30" as="geometry" />
        </mxCell>
        <mxCell id="jgYk3zZ4BMT8bTG-VnUE-74" value="User" style="shape=umlActor;verticalLabelPosition=bottom;verticalAlign=top;html=1;outlineConnect=0;" vertex="1" parent="1">
          <mxGeometry x="-1540" y="38" width="30" height="60" as="geometry" />
        </mxCell>
        <mxCell id="jgYk3zZ4BMT8bTG-VnUE-75" style="edgeStyle=orthogonalEdgeStyle;rounded=0;orthogonalLoop=1;jettySize=auto;html=1;entryX=-0.04;entryY=0.37;entryDx=0;entryDy=0;entryPerimeter=0;" edge="1" parent="1" source="jgYk3zZ4BMT8bTG-VnUE-74" target="jgYk3zZ4BMT8bTG-VnUE-67">
          <mxGeometry relative="1" as="geometry" />
        </mxCell>
        <mxCell id="jgYk3zZ4BMT8bTG-VnUE-76" value="Opens E-commerce&lt;br&gt;portal" style="edgeLabel;html=1;align=center;verticalAlign=middle;resizable=0;points=[];" vertex="1" connectable="0" parent="jgYk3zZ4BMT8bTG-VnUE-75">
          <mxGeometry x="-0.1251" y="5" relative="1" as="geometry">
            <mxPoint x="1" as="offset" />
          </mxGeometry>
        </mxCell>
        <mxCell id="jgYk3zZ4BMT8bTG-VnUE-79" style="edgeStyle=orthogonalEdgeStyle;rounded=0;orthogonalLoop=1;jettySize=auto;html=1;entryX=0.5;entryY=0;entryDx=0;entryDy=0;entryPerimeter=0;exitX=0.25;exitY=0;exitDx=0;exitDy=0;" edge="1" parent="1" source="jgYk3zZ4BMT8bTG-VnUE-68" target="jgYk3zZ4BMT8bTG-VnUE-69">
          <mxGeometry relative="1" as="geometry">
            <Array as="points">
              <mxPoint x="-978" y="-485" />
              <mxPoint x="-1178" y="-485" />
            </Array>
          </mxGeometry>
        </mxCell>
        <mxCell id="jgYk3zZ4BMT8bTG-VnUE-80" value="Authentication and&lt;br&gt;Authorization" style="edgeLabel;html=1;align=center;verticalAlign=middle;resizable=0;points=[];" vertex="1" connectable="0" parent="jgYk3zZ4BMT8bTG-VnUE-79">
          <mxGeometry x="0.0212" y="2" relative="1" as="geometry">
            <mxPoint as="offset" />
          </mxGeometry>
        </mxCell>
        <mxCell id="jgYk3zZ4BMT8bTG-VnUE-84" value="" style="endArrow=classic;startArrow=classic;html=1;rounded=0;exitX=0.5;exitY=0;exitDx=0;exitDy=0;" edge="1" parent="1" source="jgYk3zZ4BMT8bTG-VnUE-66" target="jgYk3zZ4BMT8bTG-VnUE-68">
          <mxGeometry width="50" height="50" relative="1" as="geometry">
            <mxPoint x="-980" y="-280" as="sourcePoint" />
            <mxPoint x="-930" y="-330" as="targetPoint" />
          </mxGeometry>
        </mxCell>
        <mxCell id="jgYk3zZ4BMT8bTG-VnUE-85" value="Authentication&lt;br&gt;Service" style="edgeLabel;html=1;align=center;verticalAlign=middle;resizable=0;points=[];" vertex="1" connectable="0" parent="jgYk3zZ4BMT8bTG-VnUE-84">
          <mxGeometry x="0.1506" y="1" relative="1" as="geometry">
            <mxPoint as="offset" />
          </mxGeometry>
        </mxCell>
        <mxCell id="jgYk3zZ4BMT8bTG-VnUE-86" value="Account Service" style="rounded=0;whiteSpace=wrap;html=1;" vertex="1" parent="1">
          <mxGeometry x="-850" y="-240" width="120" height="60" as="geometry" />
        </mxCell>
        <mxCell id="jgYk3zZ4BMT8bTG-VnUE-87" value="Catalog Service" style="rounded=0;whiteSpace=wrap;html=1;" vertex="1" parent="1">
          <mxGeometry x="-850" y="-90" width="120" height="60" as="geometry" />
        </mxCell>
        <mxCell id="jgYk3zZ4BMT8bTG-VnUE-88" value="Inventory Service" style="rounded=0;whiteSpace=wrap;html=1;" vertex="1" parent="1">
          <mxGeometry x="-850" y="60" width="120" height="60" as="geometry" />
        </mxCell>
        <mxCell id="jgYk3zZ4BMT8bTG-VnUE-89" value="Order Service" style="rounded=0;whiteSpace=wrap;html=1;" vertex="1" parent="1">
          <mxGeometry x="-850" y="220" width="120" height="60" as="geometry" />
        </mxCell>
        <mxCell id="jgYk3zZ4BMT8bTG-VnUE-91" value="" style="sketch=0;points=[[0,0,0],[0.25,0,0],[0.5,0,0],[0.75,0,0],[1,0,0],[0,1,0],[0.25,1,0],[0.5,1,0],[0.75,1,0],[1,1,0],[0,0.25,0],[0,0.5,0],[0,0.75,0],[1,0.25,0],[1,0.5,0],[1,0.75,0]];outlineConnect=0;fontColor=#232F3E;fillColor=#8C4FFF;strokeColor=#ffffff;dashed=0;verticalLabelPosition=bottom;verticalAlign=top;align=center;html=1;fontSize=12;fontStyle=0;aspect=fixed;shape=mxgraph.aws4.resourceIcon;resIcon=mxgraph.aws4.managed_streaming_for_kafka;" vertex="1" parent="1">
          <mxGeometry x="-1008.5" y="610" width="78" height="78" as="geometry" />
        </mxCell>
        <mxCell id="jgYk3zZ4BMT8bTG-VnUE-98" value="" style="endArrow=classic;startArrow=classic;html=1;rounded=0;entryX=0.5;entryY=0;entryDx=0;entryDy=0;entryPerimeter=0;exitX=0.5;exitY=1;exitDx=0;exitDy=0;" edge="1" parent="1" source="jgYk3zZ4BMT8bTG-VnUE-66" target="jgYk3zZ4BMT8bTG-VnUE-91">
          <mxGeometry width="50" height="50" relative="1" as="geometry">
            <mxPoint x="-940" y="530" as="sourcePoint" />
            <mxPoint x="-880" y="420" as="targetPoint" />
          </mxGeometry>
        </mxCell>
        <mxCell id="jgYk3zZ4BMT8bTG-VnUE-104" value="Messaging&lt;br&gt;Bus" style="edgeLabel;html=1;align=center;verticalAlign=middle;resizable=0;points=[];" vertex="1" connectable="0" parent="jgYk3zZ4BMT8bTG-VnUE-98">
          <mxGeometry x="-0.0671" y="-1" relative="1" as="geometry">
            <mxPoint as="offset" />
          </mxGeometry>
        </mxCell>
        <mxCell id="jgYk3zZ4BMT8bTG-VnUE-100" value="" style="endArrow=classic;startArrow=classic;html=1;rounded=0;entryX=0;entryY=0.5;entryDx=0;entryDy=0;" edge="1" parent="1" target="jgYk3zZ4BMT8bTG-VnUE-89">
          <mxGeometry width="50" height="50" relative="1" as="geometry">
            <mxPoint x="-950" y="250" as="sourcePoint" />
            <mxPoint x="-860" y="249.41" as="targetPoint" />
          </mxGeometry>
        </mxCell>
        <mxCell id="jgYk3zZ4BMT8bTG-VnUE-101" value="" style="endArrow=classic;startArrow=classic;html=1;rounded=0;entryX=0;entryY=0.5;entryDx=0;entryDy=0;" edge="1" parent="1" target="jgYk3zZ4BMT8bTG-VnUE-88">
          <mxGeometry width="50" height="50" relative="1" as="geometry">
            <mxPoint x="-956" y="90" as="sourcePoint" />
            <mxPoint x="-820" y="150" as="targetPoint" />
          </mxGeometry>
        </mxCell>
        <mxCell id="jgYk3zZ4BMT8bTG-VnUE-102" value="" style="endArrow=classic;startArrow=classic;html=1;rounded=0;entryX=0;entryY=0.5;entryDx=0;entryDy=0;exitX=1;exitY=0.25;exitDx=0;exitDy=0;" edge="1" parent="1" source="jgYk3zZ4BMT8bTG-VnUE-66" target="jgYk3zZ4BMT8bTG-VnUE-87">
          <mxGeometry width="50" height="50" relative="1" as="geometry">
            <mxPoint x="-920" y="-10" as="sourcePoint" />
            <mxPoint x="-820" y="-10" as="targetPoint" />
          </mxGeometry>
        </mxCell>
        <mxCell id="jgYk3zZ4BMT8bTG-VnUE-103" value="" style="endArrow=classic;startArrow=classic;html=1;rounded=0;entryX=0;entryY=0.5;entryDx=0;entryDy=0;exitX=1;exitY=0.053;exitDx=0;exitDy=0;exitPerimeter=0;" edge="1" parent="1" source="jgYk3zZ4BMT8bTG-VnUE-66" target="jgYk3zZ4BMT8bTG-VnUE-86">
          <mxGeometry width="50" height="50" relative="1" as="geometry">
            <mxPoint x="-954.5" y="-170" as="sourcePoint" />
            <mxPoint x="-854.5" y="-170" as="targetPoint" />
          </mxGeometry>
        </mxCell>
        <mxCell id="jgYk3zZ4BMT8bTG-VnUE-106" value="Log Analytics&lt;br&gt;Service" style="image;aspect=fixed;html=1;points=[];align=center;fontSize=12;image=img/lib/azure2/analytics/Log_Analytics_Workspaces.svg;" vertex="1" parent="1">
          <mxGeometry x="-832" y="410" width="84" height="84" as="geometry" />
        </mxCell>
        <mxCell id="jgYk3zZ4BMT8bTG-VnUE-107" value="" style="endArrow=classic;startArrow=classic;html=1;rounded=0;exitX=1.15;exitY=0.921;exitDx=0;exitDy=0;exitPerimeter=0;" edge="1" parent="1" source="jgYk3zZ4BMT8bTG-VnUE-66" target="jgYk3zZ4BMT8bTG-VnUE-106">
          <mxGeometry width="50" height="50" relative="1" as="geometry">
            <mxPoint x="-950" y="430" as="sourcePoint" />
            <mxPoint x="-850" y="430" as="targetPoint" />
          </mxGeometry>
        </mxCell>
        <mxCell id="jgYk3zZ4BMT8bTG-VnUE-108" value="Payment Service" style="rounded=0;whiteSpace=wrap;html=1;" vertex="1" parent="1">
          <mxGeometry x="-850" y="330" width="120" height="60" as="geometry" />
        </mxCell>
        <mxCell id="jgYk3zZ4BMT8bTG-VnUE-109" value="" style="endArrow=classic;startArrow=classic;html=1;rounded=0;entryX=0;entryY=0.5;entryDx=0;entryDy=0;exitX=1.072;exitY=0.803;exitDx=0;exitDy=0;exitPerimeter=0;" edge="1" parent="1" source="jgYk3zZ4BMT8bTG-VnUE-66" target="jgYk3zZ4BMT8bTG-VnUE-108">
          <mxGeometry width="50" height="50" relative="1" as="geometry">
            <mxPoint x="-940" y="340" as="sourcePoint" />
            <mxPoint x="-840" y="340" as="targetPoint" />
          </mxGeometry>
        </mxCell>
      </root>
    </mxGraphModel>
  </diagram>
</mxfile>
